<svg width="27" height="27" viewBox="0 0 27 27" fill="none" xmlns="http://www.w3.org/2000/svg">
<path d="M17.1649 25.031H9.82991C4.30616 25.031 1.94366 22.6685 1.94366 17.1448V16.9985C1.94366 12.0035 3.91241 9.596 8.32241 9.17975C8.77241 9.146 9.19991 9.4835 9.24491 9.94475C9.28991 10.406 8.95241 10.8223 8.47991 10.8673C4.94741 11.1935 3.63116 12.8585 3.63116 17.0098V17.156C3.63116 21.7348 5.25116 23.3548 9.82991 23.3548H17.1649C21.7437 23.3548 23.3637 21.7348 23.3637 17.156V17.0098C23.3637 12.836 22.0249 11.171 18.4249 10.8673C17.9637 10.8223 17.6149 10.4173 17.6599 9.956C17.7049 9.49475 18.0987 9.146 18.5712 9.191C23.0487 9.5735 25.0512 11.9923 25.0512 17.021V17.1673C25.0512 22.6685 22.6887 25.031 17.1649 25.031Z" fill="#001063"/>
<path d="M13.5 17.7192C13.0387 17.7192 12.6562 17.3367 12.6562 16.8754V4.07291C12.6562 3.61166 13.0387 3.22916 13.5 3.22916C13.9612 3.22916 14.3438 3.61166 14.3438 4.07291V16.8754C14.3438 17.3367 13.9612 17.7192 13.5 17.7192Z" fill="#001063"/>
<path d="M17.268 7.42521C17.0542 7.42521 16.8405 7.34646 16.6717 7.17771L13.4992 4.00521L10.3267 7.17771C10.0005 7.50396 9.46046 7.50396 9.13421 7.17771C8.80796 6.85146 8.80796 6.31146 9.13421 5.98521L12.903 2.21646C13.2292 1.89021 13.7692 1.89021 14.0955 2.21646L17.8642 5.98521C18.1905 6.31146 18.1905 6.85146 17.8642 7.17771C17.7067 7.34646 17.4817 7.42521 17.268 7.42521Z" fill="#001063"/>
</svg>
