<svg width="165" height="36" viewBox="0 0 165 36" fill="none" xmlns="http://www.w3.org/2000/svg">
<path d="M0 7.37452V0.025238H8.13116V7.37452H0ZM0 15.5208L8.13116 7.37452V36H0V15.5208Z" fill="white"/>
<path d="M35.9393 0H43.9696V35.9748H35.4854L20.6506 12.3279V35.9748H12.6758V12.3279H20.6506L13.0137 0H22.4261L35.9444 21.8663L35.9393 0Z" fill="white"/>
<path d="M74.4459 25.0693C74.4459 30.4716 69.9112 35.9748 61.6741 35.9748C53.3816 35.9748 49.2 31.3089 47.9238 26.8953L54.8595 24.575C55.5859 27.1374 57.7347 29.1602 61.77 29.1602C64.7914 29.1602 66.6426 27.6974 66.6426 25.5587C66.6426 23.8083 65.2303 22.5422 62.9352 22.1034L58.2088 21.2257C52.3576 20.1059 48.8015 16.2119 48.8015 11.1022C48.8015 4.58008 54.5518 0.0101013 61.1899 0.0101013C68.4283 0.0101013 71.8835 3.63683 73.2454 7.19295L66.3299 9.50314C65.5934 8.15131 64.0701 6.82473 61.1395 6.82473C58.2643 6.82473 56.4131 8.62547 56.4131 10.5221C56.4131 12.1765 57.4371 13.3922 59.828 13.831L64.4585 14.7087C71.031 15.9193 74.4459 20.1563 74.4459 25.0693Z" fill="white"/>
<path d="M75.7832 0H106.018V7.66208H94.8904V35.9748H86.8601V15.7024L94.8904 7.66208H75.7832V0Z" fill="url(#paint0_linear_87_4)"/>
<path d="M136.877 36H128.136L125.543 28.691H111.621L109.029 36H100.59L114.164 0.025238H123.46L129.135 15.2434L123.001 21.3821L118.683 8.94829L114.27 21.3821H131.43L136.877 36Z" fill="url(#paint1_linear_87_4)"/>
<path d="M164.661 11.5157C164.661 18.3152 159.632 23.0315 152.313 23.0315H146.774V35.9698H138.749V15.0416L146.83 6.95083V16.1362H151.506C154.552 16.1362 156.636 14.3607 156.636 11.5713C156.636 8.67594 154.552 6.95587 151.506 6.95587H138.749V0.00503935H152.323C159.627 -4.78281e-06 164.661 4.82216 164.661 11.5157Z" fill="url(#paint2_linear_87_4)"/>
<defs>
<linearGradient id="paint0_linear_87_4" x1="62.7815" y1="1.80824" x2="169.623" y2="38.0895" gradientUnits="userSpaceOnUse">
<stop stop-color="#834906"/>
<stop offset="0.344" stop-color="#E5B350"/>
<stop offset="0.512" stop-color="#FFFFBE"/>
<stop offset="0.685" stop-color="#F5D36F"/>
<stop offset="1" stop-color="#774300"/>
</linearGradient>
<linearGradient id="paint1_linear_87_4" x1="65.7016" y1="-4.23997" x2="225.167" y2="120.564" gradientUnits="userSpaceOnUse">
<stop stop-color="#834906"/>
<stop offset="0.344" stop-color="#E5B350"/>
<stop offset="0.512" stop-color="#FFFFBE"/>
<stop offset="0.685" stop-color="#F5D36F"/>
<stop offset="1" stop-color="#774300"/>
</linearGradient>
<linearGradient id="paint2_linear_87_4" x1="72.3049" y1="-18.0365" x2="180.327" y2="8.90589" gradientUnits="userSpaceOnUse">
<stop stop-color="#834906"/>
<stop offset="0.344" stop-color="#E5B350"/>
<stop offset="0.512" stop-color="#FFFFBE"/>
<stop offset="0.685" stop-color="#F5D36F"/>
<stop offset="1" stop-color="#774300"/>
</linearGradient>
</defs>
</svg>
